<svg xmlns="http://www.w3.org/2000/svg" xmlns:xlink="http://www.w3.org/1999/xlink" width="30px" height="30px" viewBox="0 0 30 30" version="1.1">
<defs>
<filter id="alpha" filterUnits="objectBoundingBox" x="0%" y="0%" width="100%" height="100%">
  <feColorMatrix type="matrix" in="SourceGraphic" values="0 0 0 0 1 0 0 0 0 1 0 0 0 0 1 0 0 0 1 0"/>
</filter>
<mask id="mask0">
  <g filter="url(#alpha)">
<rect x="0" y="0" width="30" height="30" style="fill:rgb(0%,0%,0%);fill-opacity:0.6;stroke:none;"/>
  </g>
</mask>
<clipPath id="clip1">
  <rect x="0" y="0" width="30" height="30"/>
</clipPath>
<g id="surface5" clip-path="url(#clip1)">
<path style=" stroke:none;fill-rule:nonzero;fill:rgb(14.509804%,16.470588%,18.431373%);fill-opacity:1;" d="M 30 15 C 30 23.285156 23.285156 30 15 30 C 6.714844 30 0 23.285156 0 15 C 0 6.714844 6.714844 0 15 0 C 23.285156 0 30 6.714844 30 15 Z M 30 15 "/>
</g>
</defs>
<g id="surface1">
<use xlink:href="#surface5" mask="url(#mask0)"/>
<path style=" stroke:none;fill-rule:nonzero;fill:rgb(100%,100%,100%);fill-opacity:1;" d="M 13.804688 18.976562 C 13.671875 18.976562 13.539062 18.941406 13.425781 18.875 C 13.164062 18.722656 13.003906 18.441406 13.007812 18.136719 L 13.007812 11.890625 C 13.003906 11.585938 13.164062 11.300781 13.425781 11.148438 C 13.664062 11.011719 13.960938 11.015625 14.195312 11.160156 L 19.535156 14.355469 C 19.761719 14.496094 19.902344 14.746094 19.902344 15.011719 C 19.902344 15.28125 19.761719 15.527344 19.535156 15.667969 L 14.195312 18.867188 C 14.078125 18.9375 13.941406 18.976562 13.804688 18.976562 Z M 13.804688 18.976562 "/>
</g>
</svg>