<svg xmlns="http://www.w3.org/2000/svg" width="30" height="30" viewBox="0 0 30 30">
    <g id="overlay-slider-pause" transform="translate(-1380 -1638)">
        <circle id="Ellipse_138" data-name="Ellipse 138" cx="15" cy="15" r="15"
            transform="translate(1380 1638)" fill="#252a2f" opacity="0.6" />
        <path id="pause-icon"
            d="M2.222,0a.847.847,0,0,1,.889.889V7.111A.847.847,0,0,1,2.222,8H.889A.847.847,0,0,1,0,7.111V.889A.847.847,0,0,1,.889,0ZM7.111,0A.874.874,0,0,1,8,.889V7.111A.847.847,0,0,1,7.111,8H5.778a.847.847,0,0,1-.889-.889V.889A.874.874,0,0,1,5.778,0Z"
            transform="translate(1391 1649)" fill="#fff" />
    </g>
</svg>