<svg xmlns="http://www.w3.org/2000/svg" viewBox="0 0 1600 900" role="img" aria-labelledby="title desc">
  <title id="title">Interior design workshop placeholder</title>
  <desc id="desc">Abstract furniture shapes in a warm studio setting.</desc>
  <defs>
    <linearGradient id="wall" x1="0" y1="0" x2="1" y2="1">
      <stop stop-color="#f4eadc"/>
      <stop offset="1" stop-color="#d9bca2"/>
    </linearGradient>
  </defs>
  <path fill="url(#wall)" d="M0 0h1600v900H0z"/>
  <path fill="#b7815e" d="M0 690h1600v210H0z"/>
  <circle cx="1260" cy="210" r="120" fill="#fff4df" opacity=".75"/>
  <path fill="#6f8274" d="M180 390h530a70 70 0 0 1 70 70v250H110V460a70 70 0 0 1 70-70z"/>
  <path fill="#f5d9bc" d="M250 445h190v145H250zm225 0h230v145H475z"/>
  <ellipse cx="1010" cy="650" rx="260" ry="64" fill="#5c3e32"/>
  <path stroke="#5c3e32" stroke-width="30" d="M840 660l-45 180m385-180 45 180"/>
  <path fill="#53695c" d="M1310 700c-85-155-45-310 35-420 75 125 93 287-35 420z"/>
  <path fill="#405448" d="M1340 710c35-155 130-245 215-260-10 140-70 245-215 260z"/>
</svg>
