<svg xmlns="http://www.w3.org/2000/svg" viewBox="0 0 1600 900" role="img" aria-labelledby="title desc">
  <title id="title">Modern living room placeholder</title>
  <desc id="desc">A calm abstract living room with seating, plants, and sunlight.</desc>
  <defs>
    <linearGradient id="room" x1="0" y1="0" x2="0" y2="1">
      <stop stop-color="#dbe4df"/>
      <stop offset="1" stop-color="#f3e7d5"/>
    </linearGradient>
  </defs>
  <path fill="url(#room)" d="M0 0h1600v900H0z"/>
  <path fill="#caa77d" d="M0 700h1600v200H0z"/>
  <path fill="#fff8e9" d="M1030 90h390v400h-390z" opacity=".82"/>
  <path fill="#81776c" d="M250 440h720a90 90 0 0 1 90 90v220H160V530a90 90 0 0 1 90-90z"/>
  <path fill="#d9c2a7" d="M245 505h340v155H245zm380 0h350v155H625z"/>
  <ellipse cx="1190" cy="735" rx="250" ry="55" fill="#634b3e"/>
  <path stroke="#634b3e" stroke-width="28" d="M1010 735l-35 125m430-125 35 125"/>
  <path fill="#506b58" d="M1320 630c-130-165-95-340 15-465 90 170 95 350-15 465z"/>
</svg>
